<svg xmlns="http://www.w3.org/2000/svg" width="569.91375" height="687.1036" viewBox="0 0 569.91375 687.1036" xmlns:xlink="http://www.w3.org/1999/xlink"><path d="M518.76803,609.27175c-.16211,0-.3252-.00098-.48779-.00293l-429.96094-5.02051c-24.43799-.31543-44.12158-20.40918-43.94971-44.82617C14.0151,458.72878,.64059,379.43679,1.00632,302.34597,1.38815,221.88308,17.28561,140.03396,51.03366,44.77908,51.42575,20.52517,71.31296,.99587,95.54098,.99587c.15674,0,.31348,.00098,.47021,.00244l429.96191,5.03027c24.49365,.31592,44.20361,20.49414,43.93799,44.98047v.00098l-.87012,74.57861-.64648,.00732-5.1333,439.73438c-.31445,24.33008-20.22754,43.94141-44.49316,43.94141ZM95.5405,2.99587c-23.19336,0-42.21875,18.73584-42.50928,41.9751l-.00195,.16553-.05566,.15576C-11.47366,227.1199-13.21292,361.54519,46.32858,558.98952l.04395,.14648-.00146,.15332c-.24365,23.38574,18.58496,42.65723,41.97266,42.95898l429.95898,5.02051c.15527,.00195,.31104,.00293,.46631,.00293,23.17383,0,42.19189-18.72949,42.49219-41.96582l4.73975-405.83936,.02051-1.99854,.5498-46.40479,.63818-.00537,.70166-60.07129c.25391-23.38477-18.5708-42.65625-41.9624-42.95801L95.98923,2.99831c-.14844-.00146-.30078-.00244-.44873-.00244Z" fill="#f2f2f2"/><polygon points="480.5712 429.07839 480.54123 431.07839 234.94119 431.07839 234.94119 429.07839 480.5712 429.07839" fill="#f2f2f2"/><polygon points="481.06125 386.57839 481.04123 388.57839 234.94119 388.57839 234.94119 386.57839 481.06125 386.57839" fill="#f2f2f2"/><polygon points="481.56125 344.07839 481.54123 346.07839 234.94119 346.07839 234.94119 344.07839 481.56125 344.07839" fill="#f2f2f2"/><path d="M480.02121,475.47836l-.02002,2H229.46121v-209.89996l2,.01996v125.61005c0,12.85999,2.95001,25.02997,8.21002,35.87,.32996,.66998,.65997,1.33997,1.01001,2,13.69995,26.38,41.27997,44.39996,73.06,44.39996h166.27997Z" fill="#f2f2f2"/><path d="M132.58238,579.82794c-23.99204-.30769-43.20739-19.9774-42.95424-43.97024C32.48791,346.38061,28.90947,211.63682,96.28217,21.53908c.13474-7.56528,2.26548-14.96039,6.17628-21.43734L93.99761,.00247c-23.99243-.253-43.66255,18.96221-43.97107,42.95394C-17.3463,233.05457-13.76772,367.79794,43.37251,557.27504c-.25356,23.99269,18.96221,43.66255,42.95424,43.97024l429.96131,5.02646c15.54682,.12885,29.97016-8.08199,37.79479-21.5166l-421.50047-4.9272Z" fill="#f2f2f2" isolation="isolate"/><path d="M196.55696,353.23888c.6856,4.30491-2.82372,8.31798-7.1811,8.19386l-14.46131,32.59311-9.99866-1.78348,17.45895-38.58576c.28542-3.21303,2.7268-5.93561,6.05818-6.43248,3.90418-.58248,7.54137,2.11042,8.12394,6.01475Z" fill="#ffb6b6"/><path d="M118.2894,453.37375l.00002,.00002c4.12695,4.26864,10.81252,4.72764,15.48413,1.06307l34.21524-26.83962,16.95234-52.7164-12.32518-5.70097-23.15567,46.18241-29.44659,20.43585c-5.87041,4.07405-6.69101,12.43841-1.72429,17.57566Z" fill="#6996e9"/><path d="M125.73123,435.06838c-.89001-.60999-1.84003-1.15002-2.82001-1.60999,.02002-.26001,.02997-.53003,.02997-.79004,.05005-2.63-.46997-5.26001-1.52997-7.66998,.14001,2.12-.51001,4.28003-1.78998,5.97003-.22003,.29999-.46002,.57996-.72003,.84998-.07001,.07001-.14001,.14001-.21002,.20001-1.40997-.32001-2.87-.47003-4.31995-.45001-1.61005,.02997-3.21002,.25-4.80005,.56-1.98999,.38-3.96997,.90997-5.94995,1.34998-.12006,.03003-.23004,.05005-.35004,.08002-.90997-2.46997-2.33997-4.72998-4.20001-6.58997,.89001,1.91998,1.07001,4.16998,.49005,6.20996-.10004,.35999-.22003,.71002-.37006,1.04999-2.15997,.22003-4.31995,.16003-6.38995-.44-.88-.25-1.71002-.58997-2.52002-.98999-2.85999-1.39996-5.44-3.47998-8.39001-4.72998-1.58997-.67999-3.26996-1.09998-4.98999-1.27002-1.44-8.25-1.03998-15.57001,3.38-20.85999,0-12.07001,9.78998-21.85999,21.85999-21.85999l10.02002,3.47998,10.12,3.52002c4.76001,12.70001,12.33002,23.88,3.45001,43.98999Z" fill="#2f2e41"/><g><polygon points="141.86317 663.71402 148.71723 666.96448 164.79604 641.48516 154.68009 636.68779 141.86317 663.71402" fill="#ffb6b6"/><path d="M158.34168,682.01795l-7.31896-12.67829,2.32612-4.90487-2.42065-.97918-7.51003-3.02079-1.83913-.74488-9.65983,16.63832,5.14357,2.43525,3.21845-4.41779,.04209,5.96753,13.62704,6.46389c1.69373,.80171,3.71838,.07495,4.51774-1.61235,.47723-1.0059,.42999-2.18135-.12641-3.14684Z" fill="#2f2e41"/></g><g><polygon points="243.08351 566.67231 248.55064 561.4136 230.41688 537.35345 222.34791 545.11482 243.08351 566.67231" fill="#ffb6b6"/><path d="M266.03696,557.74403l-14.44859,2.35465-3.7632-3.9124-1.77299,1.917-5.48466,5.9535-1.34792,1.45614,12.139,14.92618,4.099-3.94778-2.99167-4.57441,5.59568,2.07402,10.87093-10.45471c1.34958-1.30004,1.38694-3.45085,.09209-4.79596-.7717-.80253-1.88769-1.17464-2.98766-.99623Z" fill="#2f2e41"/></g><path d="M127.28122,523.07839l-27-6,.1811,8.21464s-28.1811,21.78536-2.1811,42.78536,70,23,70,23l-20,58,10,4,39.37269-53.76818c5.3016-9.63961,3.80294-21.78626-4.09491-29.44478-1.52778-1.48148-3.27778-2.78704-5.27778-3.78704-12-6-44-18-44-18l-16-16-1-9Z" fill="#2f2e41"/><path d="M126.28122,538.07839l55.45635-35.2904c6.2227-3.9599,14.32725-3.25767,19.77611,1.71353l41.76755,45.57687-11,9-43-30s-25,28-32,28-31-19-31-19Z" fill="#2f2e41"/><path d="M96.28122,540.92879s-17.03196-9.65354-9.01598-17.82677c8.01598-8.17323,9.01598-34.01575,9.01598-34.01575l-13-39.15748,10-7,3-11.85039,18-1v8.85039l18.03125,19.96317c6.12754,6.78406,7.9784,16.41079,4.80336,24.98339l-4.83461,13.05344s14,37,2,42-38,2-38,2Z" fill="#6996e9"/><path d="M186.35823,397.70125l-47.29717-42.20799c-7.14407-6.33488-7.79992-17.26225-1.46504-24.40632,6.33488-7.14407,17.26225-7.79992,24.40632-1.46504l.08136,.0729,47.29717,42.20799c7.10393,6.37982,7.69061,17.31085,1.31079,24.41478-6.35141,7.0724-17.22127,7.69036-24.33342,1.38368Z" fill="#f2f2f2" isolation="isolate"/><circle cx="109.52531" cy="408.78705" r="17.97922" fill="#ffb6b6"/><path d="M118.8912,405.07839c-.13-2.09003-.64001-4.16003-1.47998-6.08002,.14001,2.12-.51001,4.28003-1.78998,5.97003-.03003,.03998-.06,.06995-.08002,.10999-3.30505,1.60492-8.87734,.69739-14.26001,0v-20h11c10.79999-3.64001,19.69,4.27997,20,20-5.18146,.93848-10.03812,1.45245-13.39001,0Z" fill="#2f2e41"/><path d="M109.5712,432.12838c-1.98999,.38-3.96997,.90997-5.94995,1.34998-.12006,.03003-.23004,.05005-.35004,.08002-.90997-2.46997-2.33997-4.72998-4.20001-6.58997,.89001,1.91998,1.07001,4.16998,.49005,6.20996-.10004,.35999-.22003,.71002-.37006,1.04999-2.15997,.22003-4.31995,.16003-6.38995-.44-.88-.25-1.71002-.58997-2.52002-.98999v-42.71997h21c-8.15002,13.88-9.31,27.88-1.71002,42.04999Z" fill="#2f2e41"/><path d="M105.6033,382.13119c-.38373-1.2016-1.84692-1.77435-3.09338-1.58087s-2.32019,.95422-3.34247,1.69318c.99567-1.08368,.48907-2.99548-.72955-3.82056-1.21863-.82507-2.84772-.76813-4.25439-.33563s-2.68787,1.1955-4.06183,1.72278-2.94043,.80731-4.30121,.24689c.5296,1.66644,1.55389,3.17224,2.9093,4.27692-1.60321-.28046-3.34064,.55066-4.12842,1.97485-.78778,1.42426-.56848,3.33771,.52106,4.54675,1.25067,1.38782,3.36615,1.71301,5.18286,1.2774,1.81665-.43561,3.4068-1.50653,4.93835-2.57623,1.53162-1.06976,3.08679-2.17706,4.87927-2.70355l-5.89142,3.70551c3.00885-1.25372,5.92804-2.72241,8.72809-4.39111,.74866-.44623,1.50403-.9198,2.05115-1.59827,.54712-.67841,.85767-1.60773,.59259-2.43805Z" fill="#2f2e41"/><path d="M77.83884,561.77143c-.13573-4.44108,3.83876-7.5907,7.9021-8.40515,5.16288-1.03483,10.43323,1.6275,14.80774,4.0465,7.81729,4.32278,16.88691,.03646,25.23963,5.2845,12.32971,7.74683,14.87659-3.8573,14.10007-17.55804-.57269-10.10431,1.87463-20.02782,2.3958-29.96836,.50187-9.57241,3.10865-19.29814,11.22408-25.24487,3.4069-2.49646,7.65079-3.97382,11.88111-3.09783,4.51822,.93561,8.12757,4.18269,12.48125,5.59638,8.10181,2.63076,16.62262-.9191,22.69838-6.33196,7.06711-6.29604,10.51744-15.15117,12.94586-24.08181,2.51795-9.25989,4.05581-18.95527,8.67236-27.48558,3.93941-7.27909,10.12776-13.9976,18.65624-15.38591,8.35653-1.36032,16.36315,2.73637,23.57555,6.40514,7.42307,3.77593,15.09673,7.86697,23.60149,8.21899,18.22481,.75435,32.30268-14.75132,40.20092-29.4944,9.01498-16.82763,14.24191-37.24657,30.25809-49.14327,6.88411-5.11347,15.61879-8.6834,24.31604-7.25055,8.79021,1.44817,15.21182,7.8238,21.04941,14.05528,5.97945,6.38291,11.91647,12.67126,20.01786,16.34725,7.95048,3.60752,16.83319,4.95884,25.49334,3.81618,4.18252-.55186,8.18443-1.69781,12.05394-3.36938,1.76751-.76354,.24146-3.34881-1.51416-2.59041-8.48664,3.6661-18.14703,4.30142-27.1005,2.09536-8.99598-2.21653-16.16459-7.24858-22.51688-13.83605-5.81588-6.03121-11.28358-12.89767-18.89127-16.77333-7.69551-3.9204-16.51943-3.82055-24.46196-.65742-8.05339,3.20728-15.02994,8.88033-20.32012,15.70073-6.14557,7.92323-10.23236,17.20961-14.34048,26.28645-7.42505,16.40558-16.94389,35.77933-35.94003,40.87841-17.98639,4.82803-31.29431-11.08766-48.07189-13.61409-8.24822-1.24205-16.0541,1.61361-21.89485,7.50502-6.04692,6.09938-9.54245,14.16582-11.85171,22.31495-2.82949,9.98499-4.28635,20.67954-9.48211,29.82204-4.10713,7.22696-11.71444,13.92944-20.35876,14.4304-4.9518,.28697-8.7437-1.99789-12.97617-4.20528-3.8157-1.99003-7.79978-3.01454-12.0884-2.17763-8.0324,1.56751-14.27311,8.66546-17.34049,15.90142-7.56604,17.84832,2.85289,40.78418-11.9585,56.04566-2.70714,2.7894-6.17937,4.88726-10.0999,5.31405-5.25229,.57177-10.16337-1.87313-14.61569-4.35349-7.69058-4.28438-17.42788-10.01308-25.85703-4.06674-2.99112,2.11008-5.00445,5.29452-4.89038,9.02681,.05887,1.92602,3.05912,1.9343,3,0h0Z" fill="#3f3d56"/><circle cx="377.28122" cy="345.07839" r="9" fill="#6996e9"/><circle cx="293.28122" cy="430.07839" r="9" fill="#6996e9"/><g><path d="M241.96325,157.9858c5.51929-11.45404,19.83836-17.83312,32.04508-14.27595,6.87631,2.00383,12.64397,6.60795,18.96675,9.97269,6.32278,3.36473,14.16693,5.45429,20.52715,2.16088,10.93248-5.66101,10.26586-22.56247,19.77479-30.38209,6.32913-5.20473,15.61599-4.96147,23.43858-2.52136,7.82259,2.44011,14.97614,6.74802,22.84954,9.01884,14.65161,4.22577,31.31215,.67202,42.96425-9.16442,.11652-.09836,.23141-.19745,.34469-.29725,5.76867-5.08214,14.80819-.894,14.59667,6.79111l-1.47506,53.59385H242.9957l-1.03245-24.8963Z" fill="#f2f2f2"/><path d="M411.34513,148.32817c.63586-.25812,.6358-1.14911-.00018-1.4071-4.43695-1.7998-9.40582-4.36212-13.20312-7.14923-.60797-.44623-1.42035,.16895-1.16382,.87811l2.16144,5.97443h-36.98395v2h36.98401l-2.16174,5.97662c-.25653,.70917,.55585,1.32428,1.16382,.87805,3.79736-2.78723,8.76642-5.34985,13.20355-7.15088Z" fill="#3f3d56"/><path d="M328.139,138.69553c.34979-.59042-.18973-1.2995-.8521-1.11976-4.62096,1.254-10.12694,2.2232-14.83661,2.30414-.75404,.01296-1.02813,.99443-.39459,1.40352l5.33753,3.44621-29.43451,22.39246,1.21093,1.59175,29.43456-22.39249,1.89816,6.06549c.22521,.71973,1.24419,.71741,1.45788-.00583,1.33465-4.51745,3.73781-9.56555,6.17874-13.68547Z" fill="#3f3d56"/><circle cx="429.34609" cy="118.71675" r="17.14286" fill="#6996e9"/><circle cx="345.34609" cy="118.71675" r="17.14286" fill="#6996e9" opacity=".7"/><circle cx="269.34609" cy="134.71675" r="17.14286" fill="#6996e9" opacity=".25"/></g><g><path d="M477.30704,217.0753l-265.99317-1.9064c-8.54977-.06128-15.54941,6.83875-15.61069,15.38851-.06128,8.54977,6.83875,15.54941,15.38851,15.61069l265.99317,1.9064c8.54977,.06128,15.54941-6.83875,15.61069-15.38851,.06128-8.54977-6.83875-15.54941-15.38851-15.61069Z" fill="#f2f2f2"/><circle cx="171.57726" cy="227.43272" r="7" fill="#f2f2f2"/></g><g><path d="M477.30704,45.0753l-265.99317-1.9064c-8.54977-.06128-15.54941,6.83875-15.61069,15.38851-.06128,8.54977,6.83875,15.54941,15.38851,15.61069l265.99317,1.9064c8.54977,.06128,15.54941-6.83875,15.61069-15.38851,.06128-8.54977-6.83875-15.54941-15.38851-15.61069Z" fill="#f2f2f2"/><circle cx="171.57726" cy="55.43272" r="7" fill="#f2f2f2"/></g><g><path d="M144.11448,615.65201h-43.56457c-3.66186,0-6.64094-2.97908-6.64094-6.64094v-43.56457c0-3.66186,2.97908-6.64094,6.64094-6.64094h43.56457c3.66186,0,6.64094,2.97908,6.64094,6.64094v43.56457c0,3.66186-2.97908,6.64094-6.64094,6.64094Z" fill="#fff"/><path d="M144.11448,615.65201h-43.56457c-3.66186,0-6.64094-2.97908-6.64094-6.64094v-43.56457c0-3.66186,2.97908-6.64094,6.64094-6.64094h43.56457c3.66186,0,6.64094,2.97908,6.64094,6.64094v43.56457c0,3.66186-2.97908,6.64094-6.64094,6.64094Zm-43.56457-55.78391c-3.08086,0-5.57839,2.49753-5.57839,5.57839v43.56457c0,3.08086,2.49753,5.57839,5.57839,5.57839h31.04718c9.99402,0,18.09578-8.10176,18.09578-18.09578v-31.04718c0-3.08086-2.49753-5.57839-5.57839-5.57839h-43.56457Z" fill="#e6e6e6"/></g><path d="M463.74544,571.48497c2.06592,.12937,3.20768-2.43737,1.64468-3.93333l-.1555-.61819c.02047-.04951,.04105-.09897,.06178-.14839,2.08924-4.9818,9.16992-4.94742,11.24139,.04177,1.83859,4.42817,4.17942,8.86389,4.75579,13.54594,.25838,2.0668,.14213,4.17236-.31648,6.20047,4.30807-9.41059,6.57515-19.68661,6.57515-30.02077,0-2.59652-.14213-5.19301-.43275-7.78295-.239-2.11854-.56839-4.2241-.99471-6.31034-2.30575-11.2772-7.29852-22.01825-14.50012-30.98962-3.46197-1.89248-6.34906-4.85065-8.09295-8.39652-.62649-1.27891-1.11739-2.65462-1.34991-4.05618,.39398,.05168,1.48556-5.94866,1.18841-6.3168,.54906-.83317,1.53178-1.24733,2.13144-2.06034,2.98232-4.04341,7.0912-3.33741,9.23621,2.15727,4.58224,2.31266,4.62659,6.14806,1.81495,9.83683-1.78878,2.34682-2.03456,5.52233-3.60408,8.03478,.16151,.20671,.32944,.40695,.4909,.61366,2.96106,3.79788,5.52208,7.88002,7.68104,12.16859-.61017-4.76621,.29067-10.50822,1.82641-14.20959,1.74819-4.21732,5.02491-7.76915,7.91045-11.41501,3.46601-4.37924,10.57337-2.46806,11.18401,3.08332,.00591,.05375,.01166,.10745,.01731,.1612-.4286,.24178-.84849,.49867-1.25864,.76992-2.33949,1.54723-1.53096,5.17386,1.24107,5.60174l.06277,.00967c-.15503,1.54366-.41984,3.07444-.80734,4.57937,3.70179,14.31579-4.29011,19.5299-15.70147,19.76412-.25191,.12916-.49738,.25832-.74929,.38109,1.15617,3.25525,2.07982,6.59447,2.76441,9.97891,.61359,2.99043,1.03991,6.01317,1.27885,9.04888,.29715,3.83006,.27129,7.67959-.05168,11.50323l.01939-.13562c.82024-4.21115,3.10671-8.14462,6.4266-10.87028,4.94561-4.06264,11.93282-5.55869,17.26826-8.82425,2.56833-1.57196,5.85945,.45945,5.41121,3.43708l-.02182,.14261c-.79443,.32289-1.56947,.69755-2.31871,1.11733-.4286,.24184-.84848,.49867-1.25864,.76992-2.33949,1.54729-1.53096,5.17392,1.24107,5.6018l.06282,.00965c.0452,.00646,.08397,.01295,.12911,.01944-1.36282,3.23581-3.26168,6.23922-5.63854,8.82922-2.31463,12.49713-12.25603,13.68282-22.89022,10.04354h-.00648c-1.16259,5.06378-2.86128,10.01127-5.0444,14.72621h-18.02019c-.06463-.20022-.12274-.40692-.18089-.60717,1.6664,.10341,3.34571,.00649,4.98629-.29702-1.33701-1.64059-2.67396-3.29409-4.01097-4.93462-.03229-.0323-.05816-.0646-.08397-.09689-.67817-.8396-1.36282-1.67283-2.04099-2.51246l-.00036-.00102c-.04245-2.57755,.26652-5.14662,.87876-7.63984l.00057-.00035Z" fill="#f2f2f2"/><path d="M102.88717,565.54495c-3.6064-2.44871-4.12719-7.75426-1.05252-10.84434l-13.84555-32.85942,8.14731-6.06427,16.15922,39.14786c2.14576,2.40847,2.4576,6.05203,.53812,8.81979-2.24941,3.24378-6.70263,4.04981-9.94657,1.80037Z" fill="#ffb6b6"/><path d="M92.69411,445.94613h-.00002c-5.91691-.49308-11.24935,3.56558-12.35019,9.40005l-8.06268,42.7322,25,51,13-6-16-48,8.69322-34.77288c1.73306-6.93225-3.15941-13.76597-10.28033-14.35938Z" fill="#6996e9"/><path d="M104.25542,574.92189c-.82715,0-1.5,.67285-1.5,1.5v1c0,.82715,.67285,1.5,1.5,1.5h35c.82715,0,1.5-.67285,1.5-1.5v-1c0-.82715-.67285-1.5-1.5-1.5h-35Z" fill="#e6e6e6"/><path d="M104.25542,585.92189c-.82715,0-1.5,.67285-1.5,1.5v1c0,.82715,.67285,1.5,1.5,1.5h35c.82715,0,1.5-.67285,1.5-1.5v-1c0-.82715-.67285-1.5-1.5-1.5h-35Z" fill="#e6e6e6"/><path d="M104.25542,596.92189c-.82715,0-1.5,.67285-1.5,1.5v1c0,.82715,.67285,1.5,1.5,1.5h35c.82715,0,1.5-.67285,1.5-1.5v-1c0-.82715-.67285-1.5-1.5-1.5h-35Z" fill="#e6e6e6"/></svg>